<mxfile host="drawio-plugin" modified="2022-04-20T19:58:13.147Z" agent="5.0 (Windows NT 6.2; Win64; x64) AppleWebKit/537.36 (KHTML, like Gecko) Chrome/97.0.4692.45 Safari/537.36" version="15.5.4" etag="vyHKTBAMhbDoVWIQOODa" type="embed"><diagram id="kIHIvK5z-7jwxmNPbPWJ" name="Page-1"><mxGraphModel dx="1685" dy="919" grid="1" gridSize="10" guides="1" tooltips="1" connect="1" arrows="1" fold="1" page="1" pageScale="1" pageWidth="850" pageHeight="1100" math="0" shadow="0"><root><mxCell id="0"/><mxCell id="1" parent="0"/><mxCell id="2" value="GATEWAY" style="rounded=0;whiteSpace=wrap;html=1;" vertex="1" parent="1"><mxGeometry x="200" y="180" width="80" height="580" as="geometry"/></mxCell><mxCell id="4" value="ACCESS" style="rounded=0;whiteSpace=wrap;html=1;" vertex="1" parent="1"><mxGeometry x="320" y="180" width="80" height="580" as="geometry"/></mxCell></root></mxGraphModel></diagram></mxfile>